#!OML:ASF H:\MichaelJackson\Top Level 1\Subject 1\Session 1\male.ASF
:FULLY-SPECIFIED
:DEGREES
78
root 4.98506 16.9177 -19.4662 10.5322 -4.8341 -4.15073
lowerback -6.63883 5.26971 3.82079
upperback -2.77494 6.77066 0.419924
thorax 1.22167 3.36674 -1.15859
lowerneck -11.9012 -3.28039 -1.7373
upperneck -3.21498 -4.12875 2.13058
head 1.07241 -1.99394 0.775898
rclavicle 3.08629e-014 -4.82053e-015
rhumerus -34.3267 11.9526 -87.8164
rradius 40.6638
rwrist 9.04413
rhand -20.0044 -21.4865
rfingers 7.12502
rthumb 6.3356 -51.3718
lclavicle 3.08629e-014 -4.82053e-015
lhumerus -47.189 -2.10077 87.3634
lradius 43.3324
lwrist 6.95226
lhand 3.85122 13.3221
lfingers 7.12502
lthumb 29.2736 41.0385
rfemur -15.6171 -2.7745 24.9643
rtibia 28.0705
rfoot -22.3849 -13.1253
rtoes -34.8866
lfemur -35.4054 16.0956 -20.6681
ltibia 42.9414
lfoot -13.7166 -2.69808
ltoes 41.4638
79
root 4.99918 16.9041 -19.4086 10.4405 -4.57166 -4.3076
lowerback -6.73073 5.3456 3.83573
upperback -2.89702 6.86871 0.446563
thorax 1.14937 3.41338 -1.12912
lowerneck -11.8146 -3.38773 -1.66723
upperneck -3.21635 -4.28046 2.12929
head 1.05801 -2.07037 0.757765
rclavicle -7.54605e-015 -1.95803e-014
rhumerus -34.324 11.8856 -87.5807
rradius 40.8447
rwrist 9.00071
rhand -19.9834 -21.2412
rfingers 7.12502
rthumb 6.35588 -51.1258
lclavicle -7.54605e-015 -1.95803e-014
lhumerus -47.6891 -1.80824 86.9981
lradius 43.4787
lwrist 6.92741
lhand 4.15772 13.5177
lfingers 7.12502
lthumb 29.5663 41.1826
rfemur -15.3197 -3.51021 25.0867
rtibia 28.1775
rfoot -22.921 -12.9138
rtoes -34.9165
lfemur -35.1421 15.8381 -20.4462
ltibia 42.7463
lfoot -13.7313 -2.96366
ltoes 43.183
80
root 5.01358 16.8856 -19.3501 10.328 -4.23379 -4.47012
lowerback -6.82747 5.41224 3.84084
upperback -3.02777 6.95505 0.476535
thorax 1.06854 3.4541 -1.09201
lowerneck -11.6875 -3.51316 -1.59062
upperneck -3.19883 -4.4579 2.13636
head 1.04323 -2.15973 0.740583
rclavicle -1.3379e-014 9.95787e-015
rhumerus -34.3993 11.7106 -87.2932
rradius 41.0936
rwrist 8.93324
rhand -19.9015 -20.9596
rfingers 7.12502
rthumb 6.43488 -50.8419
lclavicle -1.3379e-014 9.95787e-015
lhumerus -48.1849 -1.53665 86.6034
lradius 43.6208
lwrist 6.90698
lhand 4.53943 13.7027
lfingers 7.12502
lthumb 29.9306 41.3025
rfemur -15.0341 -4.40291 25.2128
rtibia 28.348
rfoot -23.735 -12.5159
rtoes -34.2837
lfemur -34.88 15.5445 -20.2126
ltibia 42.6771
lfoot -13.7976 -3.25462
ltoes 44.7722
81
root 5.02867 16.87 -19.2907 10.1925 -3.83313 -4.63743
lowerback -6.91036 5.46963 3.83506
upperback -3.17374 7.03095 0.51094
thorax 0.961825 3.48929 -1.04781
lowerneck -11.5272 -3.65424 -1.51111
upperneck -3.15313 -4.65736 2.15112
head 1.0323 -2.26011 0.724828
rclavicle -8.18473e-015 8.77137e-015
rhumerus -34.568 11.4318 -86.9495
rradius 41.4182
rwrist 8.834
rhand -19.731 -20.6321
rfingers 7.12502
rthumb 6.5995 -50.5093
lclavicle -8.18473e-015 8.77137e-015
lhumerus -48.6825 -1.27875 86.1831
lradius 43.7599
lwrist 6.89983
lhand 4.98825 13.9383
lfingers 7.12502
lthumb 30.3588 41.46
rfemur -14.7764 -5.45632 25.3348
rtibia 28.6048
rfoot -24.8265 -11.8292
rtoes -32.7514
lfemur -34.5855 15.1911 -19.9559
ltibia 42.6996
lfoot -13.936 -3.52641
ltoes 46.0059
82
root 5.0448 16.854 -19.2308 10.0285 -3.38072 -4.80511
lowerback -6.97443 5.51971 3.81327
upperback -3.32983 7.09949 0.549667
thorax 0.831329 3.52067 -0.993854
lowerneck -11.3477 -3.81129 -1.42834
upperneck -3.07189 -4.87913 2.1706
head 1.0299 -2.37158 0.709261
rclavicle -2.41318e-014 -7.7526e-015
rhumerus -34.8224 11.0409 -86.5389
rradius 41.8139
rwrist 8.71043
rhand -19.4935 -20.2441
rfingers 7.12502
rthumb 6.82881 -50.114
lclavicle -2.41318e-014 -7.7526e-015
lhumerus -49.1702 -1.02751 85.7368
lradius 43.8897
lwrist 6.89939
lhand 5.46823 14.2631
lfingers 7.12502
lthumb 30.8165 41.6994
rfemur -14.5822 -6.64273 25.4413
rtibia 29.0109
rfoot -26.0365 -10.8403
rtoes -30.3219
lfemur -34.2579 14.7598 -19.6731
ltibia 42.799
lfoot -14.1587 -3.78165
ltoes 46.9316
83
root 5.0622 16.8378 -19.1711 9.8355 -2.87506 -4.96341
lowerback -7.01782 5.55889 3.76572
upperback -3.49216 7.15657 0.591699
thorax 0.678815 3.54645 -0.926316
lowerneck -11.154 -3.98157 -1.33984
upperneck -2.96214 -5.11969 2.19102
head 1.03426 -2.49244 0.69245
rclavicle -2.08161e-014 -5.66536e-015
rhumerus -35.1632 10.5359 -86.0484
rradius 42.2979
rwrist 8.52574
rhand -19.1414 -19.7935
rfingers 7.12502
rthumb 7.16868 -49.652
lclavicle -2.08161e-014 -5.66536e-015
lhumerus -49.6391 -0.773928 85.2656
lradius 44.0038
lwrist 6.89741
lhand 5.95208 14.6355
lfingers 7.12502
lthumb 31.2777 41.9837
rfemur -14.4847 -7.91299 25.5178
rtibia 29.6266
rfoot -27.1958 -9.57869
rtoes -27.0099
lfemur -33.8852 14.2212 -19.3692
ltibia 42.9265
lfoot -14.4449 -3.98822
ltoes 47.4695
